<svg xmlns="http://www.w3.org/2000/svg" viewBox="0 0 120 120"><defs><style>.cls-1{opacity:0.29;}.cls-2{fill:none;stroke:#0092a5;stroke-miterlimit:10;stroke-width:2px;}</style></defs><g id="drop"><path class="cls-2" d="M59.83,9.42s-28.5,31-28.5,58,18.5,43.16,28.34,43.16,28.83-13.16,28.83-43S59.83,9.42,59.83,9.42Z"/><line class="cls-2" x1="59.83" y1="10.08" x2="53.5" y2="30.08"/><line class="cls-2" x1="59.67" y1="110.58" x2="47.33" y2="96.58"/><line class="cls-2" x1="59.5" y1="95.58" x2="59.5" y2="110.58"/><line class="cls-2" x1="38.17" y1="93.25" x2="48" y2="96.92"/><line class="cls-2" x1="44.5" y1="30.42" x2="46.5" y2="36.08"/><line class="cls-2" x1="47.33" y1="74.92" x2="38.5" y2="64.25"/><line class="cls-2" x1="46.5" y1="36.08" x2="38" y2="64.25"/><line class="cls-2" x1="53.67" y1="29.67" x2="46.5" y2="36.08"/><line class="cls-2" x1="47.33" y1="96.58" x2="51.08" y2="90.58"/><line class="cls-2" x1="47" y1="74.67" x2="51.08" y2="90.58"/><line class="cls-2" x1="59.5" y1="95.58" x2="51.08" y2="90.58"/><line class="cls-2" x1="59.78" y1="65.86" x2="47" y2="74.67"/><line class="cls-2" x1="60" y1="39.08" x2="53.67" y2="29.67"/><line class="cls-2" x1="59.78" y1="65.86" x2="59.78" y2="38.97"/><line class="cls-2" x1="60.17" y1="10.08" x2="66.5" y2="30.08"/><line class="cls-2" x1="59.5" y1="110.33" x2="72.67" y2="96.58"/><line class="cls-2" x1="82.83" y1="92.54" x2="72" y2="96.92"/><line class="cls-2" x1="88.67" y1="70.25" x2="81" y2="63.25"/><line class="cls-2" x1="75.71" y1="29.75" x2="73.5" y2="36.08"/><line class="cls-2" x1="72.67" y1="74.92" x2="81.5" y2="64.25"/><line class="cls-2" x1="73.5" y1="36.08" x2="82" y2="64.25"/><line class="cls-2" x1="66.33" y1="29.67" x2="73.5" y2="36.08"/><line class="cls-2" x1="72.67" y1="96.58" x2="68.92" y2="90.58"/><line class="cls-2" x1="73" y1="74.67" x2="68.92" y2="90.58"/><line class="cls-2" x1="59.54" y1="95.92" x2="68.92" y2="90.58"/><line class="cls-2" x1="59.63" y1="65.5" x2="73" y2="74.67"/><line class="cls-2" x1="60" y1="39.08" x2="66.33" y2="29.67"/><line class="cls-2" x1="31.33" y1="70.25" x2="39" y2="63.25"/></g></svg>