<svg xmlns="http://www.w3.org/2000/svg" viewBox="0 0 120 120"><defs><style>.cls-1{opacity:0.29;}.cls-2{fill:none;stroke:#0092a5;stroke-miterlimit:10;stroke-width:2px;}</style></defs><g id="emerald"><polygon class="cls-2" points="78.41 15.56 41.59 15.56 15.56 41.59 15.56 78.41 41.59 104.44 78.41 104.44 104.44 78.41 104.44 41.59 78.41 15.56"/><polygon class="cls-2" points="75.56 22.45 44.44 22.45 22.44 44.44 22.44 75.56 44.44 97.56 75.56 97.56 97.56 75.56 97.56 44.44 75.56 22.45"/><polygon class="cls-2" points="72.84 29 47.16 29 29 47.16 29 72.84 47.16 91 72.84 91 91 72.84 91 47.16 72.84 29"/><polygon class="cls-2" points="70.49 34.67 49.51 34.67 34.67 49.51 34.67 70.49 49.51 85.33 70.49 85.33 85.33 70.49 85.33 49.51 70.49 34.67"/><line class="cls-2" x1="41.59" y1="15.56" x2="49.78" y2="35.11"/><line class="cls-2" x1="70.49" y1="34.67" x2="78.89" y2="15.56"/><line class="cls-2" x1="104.44" y1="41.59" x2="84.78" y2="49.56"/><line class="cls-2" x1="85.33" y1="70.49" x2="104.11" y2="78.22"/><line class="cls-2" x1="70.49" y1="85.33" x2="78.55" y2="104"/><line class="cls-2" x1="41.59" y1="104.44" x2="49.51" y2="85.33"/><line class="cls-2" x1="15.78" y1="78.11" x2="35" y2="70.44"/><line class="cls-2" x1="34.33" y1="49.44" x2="16.22" y2="41.67"/></g></svg>