<svg xmlns="http://www.w3.org/2000/svg" viewBox="0 0 120 120"><defs><style>.cls-1{opacity:0.29;}.cls-2{fill:none;stroke:#0092a5;stroke-miterlimit:10;stroke-width:2px;}</style></defs><g id="emerald-2" data-name="emerald"><polygon class="cls-2" points="82.82 15.85 36.49 15.85 26.98 25.47 26.98 96.31 36.49 104.15 82.82 104.15 93.23 96.31 93.23 25.47 82.82 15.85"/><polygon class="cls-2" points="78.19 23.77 41.3 23.77 33.73 31.66 33.73 89.79 41.3 96.23 78.19 96.23 86.47 89.79 86.47 31.66 78.19 23.77"/><polygon class="cls-2" points="74.3 29.46 45.34 29.46 39.4 36.11 39.4 85.08 45.34 90.51 74.3 90.51 80.81 85.08 80.81 36.11 74.3 29.46"/><polygon class="cls-2" points="69.83 36.01 49.99 36.01 45.91 41.24 45.91 79.73 49.99 83.99 69.83 83.99 74.29 79.73 74.29 41.24 69.83 36.01"/><line class="cls-2" x1="26.98" y1="96.31" x2="45.91" y2="79.73"/><line class="cls-2" x1="36.77" y1="103.53" x2="50.27" y2="83.36"/><line class="cls-2" x1="69.83" y1="83.99" x2="82.77" y2="103.36"/><line class="cls-2" x1="74.29" y1="79.73" x2="93.23" y2="96.31"/><line class="cls-2" x1="74.29" y1="41.24" x2="93.23" y2="25.47"/><line class="cls-2" x1="70.27" y1="35.36" x2="82.61" y2="16.36"/><line class="cls-2" x1="49.99" y1="36.01" x2="36.49" y2="15.85"/><line class="cls-2" x1="45.27" y1="41.36" x2="26.77" y2="25.03"/></g></svg>