<svg xmlns="http://www.w3.org/2000/svg" viewBox="0 0 120 120"><defs><style>.cls-1{opacity:0.29;}.cls-2{fill:none;stroke:#0092a5;stroke-miterlimit:10;stroke-width:2px;}</style></defs><g id="fineRound"><circle class="cls-2" cx="59.96" cy="60" r="44.64"/><line class="cls-2" x1="26.9" y1="90.9" x2="103.24" y2="71.24"/><line class="cls-2" x1="47.9" y1="16.79" x2="103.24" y2="71.24"/><line class="cls-2" x1="27.68" y1="90.79" x2="47.9" y2="16.79"/><line class="cls-2" x1="16.46" y1="70.9" x2="70.79" y2="16.68"/><line class="cls-2" x1="90.9" y1="91.79" x2="70.79" y2="16.68"/><line class="cls-2" x1="16.68" y1="70.46" x2="90.9" y2="91.79"/><line class="cls-2" x1="17.01" y1="47.57" x2="90.9" y2="27.35"/><line class="cls-2" x1="70.57" y1="102.79" x2="90.9" y2="27.35"/><line class="cls-2" x1="17.01" y1="47.57" x2="70.57" y2="102.79"/><line class="cls-2" x1="47.46" y1="102.46" x2="102.79" y2="47.68"/><line class="cls-2" x1="28.57" y1="28.46" x2="102.79" y2="47.68"/><line class="cls-2" x1="47.79" y1="102.9" x2="28.57" y2="28.46"/><line class="cls-2" x1="59.01" y1="27.57" x2="59.01" y2="15.46"/><line class="cls-2" x1="59.13" y1="90.9" x2="59.13" y2="104.46"/><line class="cls-2" x1="91.24" y1="59.35" x2="104.68" y2="59.35"/><line class="cls-2" x1="27.57" y1="59.46" x2="15.32" y2="59.46"/><line class="cls-2" x1="31.68" y1="74.68" x2="21.13" y2="80.9"/><line class="cls-2" x1="86.9" y1="43.13" x2="97.79" y2="36.79"/><line class="cls-2" x1="75.13" y1="31.46" x2="81.68" y2="21.46"/><line class="cls-2" x1="43.35" y1="32.01" x2="36.79" y2="22.35"/><line class="cls-2" x1="31.9" y1="42.57" x2="21.79" y2="37.13"/><line class="cls-2" x1="86.79" y1="75.57" x2="98.24" y2="82.01"/><line class="cls-2" x1="75.13" y1="87.79" x2="82.01" y2="97.9"/><line class="cls-2" x1="43.24" y1="87.13" x2="37.24" y2="97.9"/></g></svg>