<svg xmlns="http://www.w3.org/2000/svg" viewBox="0 0 120 120"><defs><style>.cls-1{opacity:0.29;}.cls-2{fill:none;stroke:#0092a5;stroke-miterlimit:10;stroke-width:2px;}</style></defs><g id="halfRose"><rect class="cls-2" x="21.44" y="38.34" width="77.11" height="43.33" rx="0.89"/><path class="cls-2" d="M59.49,16.38a.58.58,0,0,1,1,0l18.6,32.2L97.7,80.79a.59.59,0,0,1-.51.88H22.81a.59.59,0,0,1-.51-.88L40.89,48.58Z"/><path class="cls-2" d="M59.49,103.64a.59.59,0,0,0,1,0l18.6-32.21L97.7,39.23a.59.59,0,0,0-.51-.89H22.81a.59.59,0,0,0-.51.89l18.59,32.2Z"/><line class="cls-2" x1="46.72" y1="38.78" x2="73.06" y2="81.67"/><line class="cls-2" x1="72.94" y1="38.56" x2="47.28" y2="81.45"/><line class="cls-2" x1="34.17" y1="60.01" x2="85.72" y2="60.67"/><line class="cls-2" x1="21.69" y1="38.59" x2="59.73" y2="16.15"/><line class="cls-2" x1="98.2" y1="38.52" x2="59.96" y2="16.68"/><line class="cls-2" x1="98" y1="38.4" x2="60.1" y2="16.07"/><line class="cls-2" x1="21.85" y1="81.52" x2="59.8" y2="103.9"/><line class="cls-2" x1="98.22" y1="81.49" x2="60.21" y2="103.89"/></g></svg>