<svg xmlns="http://www.w3.org/2000/svg" viewBox="0 0 120 120"><defs><style>.cls-1{opacity:0.29;}.cls-2{fill:none;stroke:#0092a5;stroke-miterlimit:10;stroke-width:2px;}</style></defs><g id="heart"><path class="cls-2" d="M103,54.69c-3.22,8.67-10.33,21.67-24.11,34.78a163.1,163.1,0,0,1-18.85,15,160.57,160.57,0,0,1-18.85-15C27.37,76.36,20.26,63.36,17,54.69S10.82,21.36,31.48,16.36c17.29-4.18,26.1,8,28.52,12,2.42-4.08,11.23-16.22,28.52-12C109.18,21.36,106.18,46,103,54.69Z"/><line class="cls-2" x1="22.4" y1="20.8" x2="60.23" y2="29.46"/><line class="cls-2" x1="16.48" y1="53.46" x2="27.48" y2="39.57"/><line class="cls-2" x1="22.93" y1="20.57" x2="27.37" y2="40.35"/><line class="cls-2" x1="15.93" y1="30.8" x2="27.37" y2="40.35"/><line class="cls-2" x1="42.26" y1="15.8" x2="46.82" y2="26.57"/><line class="cls-2" x1="26.82" y1="39.57" x2="41.37" y2="35.69"/><line class="cls-2" x1="46.7" y1="25.69" x2="40.82" y2="36.02"/><line class="cls-2" x1="16.26" y1="52.57" x2="36.59" y2="60.91"/><line class="cls-2" x1="21.59" y1="64.35" x2="36.93" y2="60.69"/><line class="cls-2" x1="33.48" y1="80.8" x2="36.59" y2="60.24"/><line class="cls-2" x1="26.82" y1="39.57" x2="40.7" y2="53.8"/><line class="cls-2" x1="40.82" y1="36.02" x2="40.15" y2="54.13"/><line class="cls-2" x1="36.59" y1="60.91" x2="40.59" y2="53.02"/><line class="cls-2" x1="32.93" y1="80.69" x2="54.82" y2="82.46"/><line class="cls-2" x1="36.59" y1="60.91" x2="50.7" y2="66.57"/><line class="cls-2" x1="39.82" y1="52.69" x2="59.93" y2="78.35"/><line class="cls-2" x1="44.82" y1="92.46" x2="60.15" y2="77.57"/><line class="cls-2" x1="60" y1="104.51" x2="50.37" y2="66.02"/><line class="cls-2" x1="59.67" y1="29.48" x2="40.82" y2="36.02"/><line class="cls-2" x1="97.76" y1="20.8" x2="59.93" y2="29.46"/><line class="cls-2" x1="103.68" y1="53.46" x2="92.68" y2="39.57"/><line class="cls-2" x1="97.23" y1="20.57" x2="92.79" y2="40.35"/><line class="cls-2" x1="104.23" y1="30.8" x2="92.79" y2="40.35"/><line class="cls-2" x1="77.9" y1="15.8" x2="73.34" y2="26.57"/><line class="cls-2" x1="93.34" y1="39.57" x2="78.79" y2="35.69"/><line class="cls-2" x1="73.45" y1="25.69" x2="79.34" y2="36.02"/><line class="cls-2" x1="103.9" y1="52.57" x2="83.57" y2="60.91"/><line class="cls-2" x1="98.57" y1="64.35" x2="83.23" y2="60.69"/><line class="cls-2" x1="86.68" y1="80.8" x2="83.57" y2="60.24"/><line class="cls-2" x1="93.34" y1="39.57" x2="79.45" y2="53.8"/><line class="cls-2" x1="79.34" y1="36.02" x2="80.01" y2="54.13"/><line class="cls-2" x1="83.57" y1="60.91" x2="79.57" y2="53.02"/><line class="cls-2" x1="87.23" y1="80.69" x2="65.34" y2="82.46"/><line class="cls-2" x1="83.57" y1="60.91" x2="69.45" y2="66.57"/><line class="cls-2" x1="80.34" y1="52.69" x2="60.23" y2="78.35"/><line class="cls-2" x1="75.34" y1="92.46" x2="60.01" y2="77.57"/><line class="cls-2" x1="60.16" y1="104.51" x2="69.79" y2="66.02"/><line class="cls-2" x1="60.49" y1="29.48" x2="79.34" y2="36.02"/></g></svg>