<svg xmlns="http://www.w3.org/2000/svg" viewBox="0 0 120 120"><defs><style>.cls-1{opacity:0.29;}.cls-2{fill:none;stroke:#0092a5;stroke-miterlimit:10;stroke-width:2px;}</style></defs><g id="princessCut"><rect class="cls-2" x="20" y="19.89" width="80" height="80.22"/><line class="cls-2" x1="20" y1="19.89" x2="77.89" y2="43.78"/><line class="cls-2" x1="100" y1="100.11" x2="77.44" y2="43.44"/><line class="cls-2" x1="20" y1="100.11" x2="43.56" y2="43.33"/><line class="cls-2" x1="100" y1="19.89" x2="43.56" y2="43.33"/><line class="cls-2" x1="20" y1="19.89" x2="42.78" y2="77"/><line class="cls-2" x1="100" y1="100.11" x2="42.78" y2="77"/><line class="cls-2" x1="20" y1="100.11" x2="79" y2="76.33"/><line class="cls-2" x1="100" y1="19.89" x2="78.56" y2="76.33"/><line class="cls-2" x1="43.56" y1="43.33" x2="43.33" y2="29.11"/><line class="cls-2" x1="77.44" y1="43.44" x2="77.44" y2="29"/><line class="cls-2" x1="77.33" y1="29.44" x2="43.11" y2="29.44"/><line class="cls-2" x1="42" y1="77.11" x2="41.78" y2="91.33"/><line class="cls-2" x1="78.44" y1="77" x2="78.44" y2="91.44"/><line class="cls-2" x1="79" y1="91.56" x2="41" y2="91.56"/><line class="cls-2" x1="77.44" y1="43.44" x2="91.11" y2="43.44"/><line class="cls-2" x1="78.44" y1="76.44" x2="90.67" y2="76.44"/><line class="cls-2" x1="90.67" y1="76.89" x2="90.67" y2="43.44"/><line class="cls-2" x1="42.89" y1="43.44" x2="29.22" y2="43.44"/><line class="cls-2" x1="41.89" y1="76.44" x2="29.67" y2="76.44"/><line class="cls-2" x1="29.67" y1="76.89" x2="29.67" y2="43.44"/></g></svg>