<svg xmlns="http://www.w3.org/2000/svg" viewBox="0 0 120 120"><defs><style>.cls-1{opacity:0.29;}.cls-2{fill:none;stroke:#0092a5;stroke-miterlimit:10;stroke-width:2px;}</style></defs><g id="radiant"><polygon class="cls-2" points="84 15.2 36.17 15.2 19.62 32.02 19.62 86.81 35.83 104.8 84 104.8 100.38 86.81 100.38 32.02 84 15.2"/><polygon class="cls-2" points="78.51 25.44 41.61 25.44 28.85 38.42 28.85 80.68 41.36 94.56 78.51 94.56 91.15 80.68 91.15 38.42 78.51 25.44"/><path class="cls-2" d="M36.08,15.66l5.53,9.78s0,16.05-3,27.72-9.73,27.52-9.73,27.52"/><path class="cls-2" d="M83.92,15.66l-5.41,9.78a202.28,202.28,0,0,0,2.57,22.38c1.84,9.34,10.07,32.86,10.07,32.86l8.77,5.81"/><path class="cls-2" d="M83.75,104l-5.24-9.43s1.91-19.9,4.57-34.24a69.44,69.44,0,0,1,8.07-21.9l9.23-6.4"/><path class="cls-2" d="M36.42,104.16l4.94-9.6S56.42,87,69.58,83.49s21.57-2.81,21.57-2.81"/><path class="cls-2" d="M20.08,86.32l8.77-5.64S43.58,82,54.42,85s24.09,9.57,24.09,9.57"/><path class="cls-2" d="M19.62,32l9.13,5.8s7,13,9.67,27.17c2.33,12.5,2.94,29.57,2.94,29.57"/><path class="cls-2" d="M28.85,38.42S51.69,36,59.92,33.49a91,91,0,0,0,18.59-8"/><path class="cls-2" d="M41.61,25.44s14,6.22,22.47,8.55,27.07,4.43,27.07,4.43"/></g></svg>